<?xml version="1.0" encoding="utf-8"?>
<!-- Generator: Adobe Illustrator 23.0.1, SVG Export Plug-In . SVG Version: 6.00 Build 0)  -->
<svg version="1.1" id="Layer_1" xmlns="http://www.w3.org/2000/svg" xmlns:xlink="http://www.w3.org/1999/xlink" x="0px" y="0px"
	 viewBox="0 0 278.44 72" style="enable-background:new 0 0 278.44 72;" xml:space="preserve">
<style type="text/css">
	.st0{fill:#139FDA;}
	.st1{fill:#FFFFFF;}
</style>
<path class="st0" d="M271.42,37.8c-2.97,0-5.16,2.4-5.16,5.33c0,2.97,2.19,5.33,5.21,5.33c2.93,0.04,5.08-2.36,5.08-5.33
	C276.54,40.19,274.39,37.8,271.42,37.8L271.42,37.8z M271.42,36.45c3.86,0,6.83,2.97,6.83,6.67c0,3.78-2.97,6.71-6.83,6.71
	c-3.82,0-6.87-2.93-6.87-6.71C264.55,39.42,267.6,36.45,271.42,36.45L271.42,36.45z M270.4,40.92v1.91h0.73
	c0.86,0,1.54-0.28,1.54-0.98c0-0.61-0.45-1.01-1.42-1.01C270.85,40.84,270.57,40.88,270.4,40.92L270.4,40.92z M270.36,43.93v2.64
	h-1.54v-6.62c0.61-0.13,1.46-0.24,2.57-0.24c1.26,0,1.83,0.2,2.32,0.53c0.36,0.28,0.65,0.81,0.65,1.42c0,0.77-0.57,1.35-1.39,1.58
	c0.65,0.28,1.01,0.81,1.22,1.71c0.2,1.01,0.32,1.42,0.49,1.63h-1.67c-0.2-0.24-0.32-0.81-0.53-1.59c-0.12-0.73-0.53-1.05-1.39-1.05
	L270.36,43.93L270.36,43.93z M64.75,0.51l48.38,49.69H89.57L56.48,13.46h-0.31l-13.1,15.25h12.5l8.01,8.66h-27.7L23.56,50.2H0
	L48.06,0.51H64.75L64.75,0.51z M214.38,0.51l48.37,49.7h-23.56L206.1,13.47h-0.3l-13.11,15.25h12.5l8.01,8.66h-27.7l-12.32,12.83
	h-23.56l48.06-49.7L214.38,0.51L214.38,0.51z M121.71,59.75l-8.12-9.48c1.5,0.87,3.53,1.32,6.11,1.32c7.76,0,8.82-3.71,8.82-5.62
	V0.72h18.02v44.68C146.52,57.14,129.88,59.48,121.71,59.75L121.71,59.75z"/>
<path class="st1" d="M258.86,71.64c-1.68,0-2.89-0.39-3.95-1.47l1.13-1.11c0.81,0.82,1.71,1.06,2.85,1.06c1.45,0,2.3-0.62,2.3-1.71
	c0-0.49-0.14-0.9-0.44-1.16c-0.28-0.26-0.57-0.38-1.22-0.47l-1.32-0.19c-0.91-0.13-1.63-0.44-2.12-0.9
	c-0.55-0.52-0.82-1.22-0.82-2.14c0-1.94,1.41-3.28,3.74-3.28c1.47,0,2.51,0.38,3.46,1.27l-1.08,1.06c-0.69-0.66-1.49-0.86-2.43-0.86
	c-1.32,0-2.04,0.75-2.04,1.74c0,0.41,0.13,0.77,0.42,1.03c0.28,0.25,0.74,0.44,1.26,0.52l1.27,0.19c1.03,0.16,1.61,0.41,2.09,0.83
	c0.61,0.54,0.91,1.34,0.91,2.29C262.87,70.41,261.19,71.64,258.86,71.64L258.86,71.64z M153.8,71.55h-1.32l-3.67-11.16h1.76
	l2.57,8.12l2.57-8.12h1.78L153.8,71.55L153.8,71.55z M159.03,71.55V60.39h1.7v11.16H159.03L159.03,71.55z M170.45,70.49
	c-0.7,0.7-1.73,1.05-2.89,1.05h-3.92V60.39h3.92c1.16,0,2.18,0.34,2.89,1.05c1.21,1.21,1.13,2.84,1.13,4.45
	S171.66,69.28,170.45,70.49L170.45,70.49z M169.29,62.66c-0.47-0.52-1.09-0.75-1.89-0.75h-2.06v8.12h2.06c0.8,0,1.42-0.23,1.89-0.75
	c0.58-0.64,0.59-1.85,0.59-3.38C169.88,64.35,169.87,63.3,169.29,62.66L169.29,62.66z M174.08,71.55V60.39h7.13v1.52h-5.44v3.26
	h4.64v1.5h-4.64v3.36h5.44v1.52H174.08L174.08,71.55z M190.09,70.44c-0.77,0.77-1.76,1.19-2.95,1.19c-1.19,0-2.17-0.42-2.94-1.19
	c-1.09-1.09-1.08-2.33-1.08-4.49c0-2.15-0.02-3.38,1.08-4.49c0.77-0.77,1.74-1.19,2.94-1.19c1.19,0,2.18,0.42,2.95,1.19
	c1.1,1.1,1.06,2.33,1.06,4.49C191.15,68.11,191.18,69.35,190.09,70.44L190.09,70.44z M188.8,62.5c-0.39-0.42-1-0.69-1.66-0.69
	c-0.66,0-1.27,0.26-1.66,0.69c-0.55,0.59-0.65,1.22-0.65,3.46c0,2.24,0.11,2.87,0.65,3.46c0.39,0.42,1,0.69,1.66,0.69
	c0.65,0,1.27-0.26,1.66-0.69c0.55-0.59,0.65-1.22,0.65-3.46C189.46,63.72,189.35,63.1,188.8,62.5L188.8,62.5z M201.17,71.64
	c-1.68,0-2.89-0.39-3.95-1.47l1.13-1.11c0.82,0.82,1.71,1.06,2.86,1.06c1.45,0,2.3-0.62,2.3-1.71c0-0.49-0.14-0.9-0.44-1.16
	c-0.28-0.26-0.57-0.38-1.22-0.47l-1.32-0.19c-0.91-0.13-1.63-0.44-2.12-0.9c-0.55-0.52-0.82-1.22-0.82-2.14
	c0-1.94,1.41-3.28,3.74-3.28c1.47,0,2.51,0.38,3.46,1.27l-1.08,1.06c-0.69-0.66-1.49-0.86-2.43-0.86c-1.32,0-2.04,0.75-2.04,1.74
	c0,0.41,0.13,0.77,0.42,1.03c0.28,0.25,0.74,0.44,1.26,0.52l1.27,0.19c1.03,0.16,1.61,0.41,2.09,0.83c0.61,0.54,0.91,1.34,0.91,2.29
	C205.19,70.41,203.51,71.64,201.17,71.64L201.17,71.64z M210.8,66.95v4.59h-1.7v-4.59l-3.34-6.56h1.85l2.33,4.91l2.33-4.91h1.85
	L210.8,66.95L210.8,66.95z M218.63,71.64c-1.68,0-2.89-0.39-3.95-1.47l1.13-1.11c0.82,0.82,1.71,1.06,2.86,1.06
	c1.45,0,2.3-0.62,2.3-1.71c0-0.49-0.14-0.9-0.44-1.16c-0.28-0.26-0.57-0.38-1.22-0.47l-1.32-0.19c-0.91-0.13-1.63-0.44-2.12-0.9
	c-0.55-0.52-0.82-1.22-0.82-2.14c0-1.94,1.41-3.28,3.74-3.28c1.47,0,2.51,0.38,3.46,1.27l-1.08,1.06c-0.69-0.66-1.49-0.86-2.43-0.86
	c-1.32,0-2.04,0.75-2.04,1.74c0,0.41,0.13,0.77,0.42,1.03c0.28,0.25,0.74,0.44,1.26,0.52l1.27,0.19c1.03,0.16,1.61,0.41,2.09,0.83
	c0.61,0.54,0.91,1.34,0.91,2.29C222.65,70.41,220.97,71.64,218.63,71.64L218.63,71.64z M228.69,61.9v9.64H227V61.9h-3.07v-1.52h7.84
	v1.52L228.69,61.9L228.69,61.9z M233.7,71.55V60.39h7.13v1.52h-5.44v3.26h4.64v1.5h-4.64v3.36h5.44v1.52H233.7L233.7,71.55z
	 M251.3,71.55v-7.46l-2.57,5.44h-1.26l-2.63-5.44v7.46h-1.7V60.39h1.7l3.26,6.94l3.2-6.94h1.7v11.16H251.3L251.3,71.55z"/>
</svg>
