<?xml version="1.0" encoding="utf-8"?>
<!-- Generator: Adobe Illustrator 28.1.0, SVG Export Plug-In . SVG Version: 6.00 Build 0)  -->
<svg version="1.1" id="Layer_1" xmlns="http://www.w3.org/2000/svg" xmlns:xlink="http://www.w3.org/1999/xlink" x="0px" y="0px"
	 viewBox="0 0 1240 1240" style="enable-background:new 0 0 1240 1240;" xml:space="preserve">
<style type="text/css">
	.st0{fill:#159CD8;}
	.st1{fill:url(#SVGID_1_);}
	.st2{fill:#FFFFFF;}
</style>
<g>
	<g>
		<path class="st0" d="M1218.4,135.5v969.3c0,62.8-49.6,114-110.7,114H131.9c-61.2,0-110.7-51.2-110.7-114V135.5
			c0-62.8,49.6-114,110.7-114h975.8C1168.8,21.5,1218.4,72.7,1218.4,135.5z"/>
	</g>
	
		<radialGradient id="SVGID_1_" cx="619.755" cy="620.145" r="619.545" gradientTransform="matrix(1 0 0 0.9189 0 50.304)" gradientUnits="userSpaceOnUse">
		<stop  offset="6.190000e-02" style="stop-color:#159CD8"/>
		<stop  offset="1" style="stop-color:#0976A5"/>
	</radialGradient>
	<path class="st1" d="M1107.7,0.6H131.9C59.1,0.6,0.2,61.1,0.2,135.5v969.3c0,74.4,59.6,134.9,131.6,134.9h975.8
		c72.8,0,131.7-60.5,131.7-134.9V135.5C1239.3,61.1,1180.4,0.6,1107.7,0.6z M1218.4,1104.8c0,62.8-49.6,114-110.7,114H131.9
		c-61.2,0-110.7-51.2-110.7-114V135.5c0-62.8,49.6-114,110.7-114h975.8c61.2,0,110.7,51.2,110.7,114V1104.8z"/>
</g>
<g>
	<polygon class="st2" points="412.6,103.9 563.4,258.8 490,258.8 386.8,144.3 385.8,144.3 345,191.9 384,191.9 409,218.9 
		322.6,218.9 284.2,258.8 210.7,258.8 360.6,103.9 	"/>
	<polygon class="st2" points="879,103.9 1029.8,258.8 956.4,258.8 853.2,144.3 852.3,144.3 811.4,191.9 850.4,191.9 875.4,218.9 
		789,218.9 750.6,258.8 677.2,258.8 827,103.9 	"/>
	<path class="st2" d="M590.1,288.6l-25.3-29.5c4.7,2.7,11,4.1,19,4.1c24.2,0,27.5-11.6,27.5-17.5V104.6h56.2v139.3
		C667.5,280.5,615.6,287.8,590.1,288.6L590.1,288.6z"/>
</g>
<g>
	<g>
		<path class="st2" d="M220.3,756.3L383,692.7l-162.7-64.1v-51.9L432,666.2v52.4l-211.8,89.1V756.3z"/>
		<path class="st2" d="M444.3,869h268.8v46.7H444.3V869z"/>
	</g>
	<path class="st2" d="M1105.6,1042.4h-967c-25.1,0-45.5-20.4-45.5-45.5V433.1c0-25.1,20.4-45.5,45.5-45.5h967
		c25.1,0,45.5,20.4,45.5,45.5v563.9C1151,1022,1130.6,1042.4,1105.6,1042.4z M138.6,423.9c-5,0-9.2,4.1-9.2,9.2v563.9
		c0,5,4.1,9.2,9.2,9.2h967c5,0,9.2-4.1,9.2-9.2V433.1c0-5-4.1-9.2-9.2-9.2H138.6z"/>
</g>
</svg>
